<svg xmlns="http://www.w3.org/2000/svg" xmlns:xlink="http://www.w3.org/1999/xlink" id="ela-andalucia-logo" width="267.586" height="86.498" viewBox="0 0 267.586 86.498"><defs><clipPath id="clip-path"><rect id="Rect&#xE1;ngulo_43" data-name="Rect&#xE1;ngulo 43" width="267.586" height="86.498" fill="none"></rect></clipPath></defs><g id="Grupo_5" data-name="Grupo 5" clip-path="url(#clip-path)"><path id="Trazado_2" data-name="Trazado 2" d="M111.979,67.772q1.623,1.435,5.9,1.435a10.816,10.816,0,0,0,7.9-3.246q.406-.436,1.654-1.936l6.463,2.311a41.882,41.882,0,0,1-3.434,4.339,17.778,17.778,0,0,1-30.343-12.581,17.808,17.808,0,0,1,28.813-13.986q.78.656,1.529,1.405.312.313,1.779,1.966l-3.246,3.279Zm10.8-19.979q-1.093-.843-4.9-.843a11.138,11.138,0,0,0-11.113,11.144q0,3.778.842,4.9Z" transform="translate(-43.51 -17.514)" fill="#3b4650"></path><path id="Trazado_3" data-name="Trazado 3" d="M174.4,28.473V69.9H167.9V37.018Z" transform="translate(-72.971 -12.374)" fill="#3b4650"></path><path id="Trazado_4" data-name="Trazado 4" d="M108.653,112.523v-.67h1.937v9.588h-1.937v-1.2a4.38,4.38,0,0,1-3.24,1.443,5.3,5.3,0,1,1,0-10.595,4.392,4.392,0,0,1,3.24,1.434m0,4.57v-1.415a3.123,3.123,0,0,0-.894-1.638,3.314,3.314,0,1,0,0,4.692,3.12,3.12,0,0,0,.894-1.639" transform="translate(-43.511 -48.279)" fill="#3b4650"></path><path id="Trazado_5" data-name="Trazado 5" d="M123.981,114.608v7.01h-1.936v-9.579h1.936v1.117a2.359,2.359,0,0,1,2.43-1.638,3.046,3.046,0,0,1,2.471,1.1,4.308,4.308,0,0,1,.945,2.769v6.228H127.9v-6.154a1.913,1.913,0,0,0-.606-1.419,2.063,2.063,0,0,0-2.877-.014,2.172,2.172,0,0,0-.437.576" transform="translate(-53.04 -48.465)" fill="#3b4650"></path><path id="Trazado_6" data-name="Trazado 6" d="M147.381,111.243v-3.076h1.936v11.994h-1.936V118.97a4.389,4.389,0,0,1-3.249,1.443,5.307,5.307,0,0,1,0-10.614,4.389,4.389,0,0,1,3.249,1.443m0,4.58V114.4a3.1,3.1,0,0,0-.9-1.639,3.314,3.314,0,1,0,0,4.693,3.1,3.1,0,0,0,.9-1.63" transform="translate(-60.337 -47.009)" fill="#3b4650"></path><path id="Trazado_7" data-name="Trazado 7" d="M168.887,112.523v-.67h1.936v9.588h-1.936v-1.2a4.378,4.378,0,0,1-3.24,1.443,5.3,5.3,0,1,1,0-10.595,4.391,4.391,0,0,1,3.24,1.434m0,4.57v-1.415a3.126,3.126,0,0,0-.893-1.638,3.314,3.314,0,1,0,0,4.692,3.123,3.123,0,0,0,.893-1.639" transform="translate(-69.688 -48.279)" fill="#3b4650"></path><rect id="Rect&#xE1;ngulo_38" data-name="Rect&#xE1;ngulo 38" width="1.937" height="12.004" transform="translate(103.061 61.149)" fill="#3b4650"></rect><path id="Trazado_8" data-name="Trazado 8" d="M193.151,122.15a3.953,3.953,0,0,1-2.923-1.108,3.861,3.861,0,0,1-1.136-2.774V112.44h1.937v5.752a1.926,1.926,0,0,0,.6,1.424,2.062,2.062,0,0,0,1.508.6,2,2,0,0,0,1.439-.591,1.919,1.919,0,0,0,.609-1.43V112.44h1.927v5.827a3.82,3.82,0,0,1-3.966,3.883" transform="translate(-82.179 -48.866)" fill="#3b4650"></path><path id="Trazado_9" data-name="Trazado 9" d="M213.831,118.131l1.927.689a12.611,12.611,0,0,1-1.024,1.294,5.307,5.307,0,1,1,0-7.5,13.1,13.1,0,0,1,1.024,1.276l-1.927.707q-.373-.455-.5-.587a3.318,3.318,0,1,0-2.346,5.67,3.228,3.228,0,0,0,2.355-.969c.081-.088.245-.279.494-.577" transform="translate(-89.39 -48.265)" fill="#3b4650"></path><path id="Trazado_10" data-name="Trazado 10" d="M227.378,106.216h2.345l-2.532,2.6h-1.834Zm.4,13.1h-1.927v-9.589h1.927Z" transform="translate(-97.94 -46.161)" fill="#3b4650"></path><path id="Trazado_11" data-name="Trazado 11" d="M241.5,112.523v-.67h1.936v9.588H241.5v-1.2a4.378,4.378,0,0,1-3.24,1.443,5.3,5.3,0,1,1,0-10.595,4.391,4.391,0,0,1,3.24,1.434m0,4.57v-1.415a3.126,3.126,0,0,0-.893-1.638,3.314,3.314,0,1,0,0,4.692,3.123,3.123,0,0,0,.893-1.639" transform="translate(-101.244 -48.279)" fill="#3b4650"></path><path id="Trazado_12" data-name="Trazado 12" d="M58.253,85.2h3.1a19.536,19.536,0,0,0,.3-3.29h0a19.534,19.534,0,0,0-.3-3.28h-3.1a16.339,16.339,0,0,0-2.4-5.758l2.2-2.2a19.588,19.588,0,0,0-4.645-4.648l-2.2,2.2a16.324,16.324,0,0,0-5.757-2.4v-3.1a18.28,18.28,0,0,0-6.571,0v3.1a16.328,16.328,0,0,0-5.758,2.4l-2.2-2.2a19.555,19.555,0,0,0-4.647,4.645l2.2,2.2a16.32,16.32,0,0,0-2.4,5.756h-3.1a19.537,19.537,0,0,0-.3,3.29h0a19.553,19.553,0,0,0,.3,3.281h3.1a16.315,16.315,0,0,0,2.4,5.757l-2.2,2.2A19.575,19.575,0,0,0,30.921,97.8l2.2-2.2A16.324,16.324,0,0,0,38.879,98v3.1a18.264,18.264,0,0,0,6.571,0V98a16.318,16.318,0,0,0,5.758-2.4l2.2,2.2a19.567,19.567,0,0,0,4.648-4.645l-2.2-2.2a16.311,16.311,0,0,0,2.4-5.757m-8.5-.347c-.045.116-.09.232-.14.345a8.187,8.187,0,0,1-4.162,4.16c-.113.05-.229.1-.345.141a8.031,8.031,0,0,1-5.881,0c-.116-.045-.231-.09-.345-.14A8.191,8.191,0,0,1,34.72,85.2c-.05-.113-.095-.229-.14-.345a8.027,8.027,0,0,1,0-5.881c.045-.115.089-.231.14-.344a8.184,8.184,0,0,1,4.162-4.161c.113-.05.229-.094.344-.14a8.032,8.032,0,0,1,5.882,0c.116.045.231.09.345.14a8.184,8.184,0,0,1,4.16,4.162c.05.114.095.229.141.345a8.031,8.031,0,0,1,0,5.881" transform="translate(-9.86 -27.135)" fill="#e6215d"></path><path id="Trazado_13" data-name="Trazado 13" d="M23.719,29.54a11.127,11.127,0,0,0,0-7.135l2.328-1.344A13.916,13.916,0,0,0,23.8,17.145L21.455,18.5a11.276,11.276,0,0,0-6.17-3.583V12.239a14,14,0,0,0-2.262-.2,13.977,13.977,0,0,0-2.254.2v2.677A11.273,11.273,0,0,0,4.6,18.494L2.251,17.139A13.91,13.91,0,0,0,0,21.055L2.33,22.4a11.127,11.127,0,0,0,0,7.135L0,30.878A13.9,13.9,0,0,0,2.247,34.8l2.345-1.354a11.272,11.272,0,0,0,6.171,3.583V39.7a13.991,13.991,0,0,0,2.261.2,13.977,13.977,0,0,0,2.255-.2V37.026a11.275,11.275,0,0,0,6.173-3.58L23.8,34.8a13.908,13.908,0,0,0,2.249-3.916Zm-5.132-2.964a5.6,5.6,0,1,1-8.862-5.119,5.666,5.666,0,0,1,1.041-.606,5.59,5.59,0,0,1,7.82,5.725" transform="translate(0 -5.232)" fill="#44ac37"></path><path id="Trazado_14" data-name="Trazado 14" d="M80.621,16.645A17.436,17.436,0,0,1,70.637,3.854L69.942,0,67.306,2.9A17.435,17.435,0,0,1,52.056,8.439l-3.88-.529,1.94,3.4a17.437,17.437,0,0,1,.557,16.217l-1.7,3.526,3.835-.794A17.436,17.436,0,0,1,68.4,34.74l2.828,2.709.43-3.892a17.435,17.435,0,0,1,9.08-13.448l3.45-1.852ZM65.337,23.3a4.648,4.648,0,1,1,3.937-5.263A4.647,4.647,0,0,1,65.337,23.3" transform="translate(-20.937)" fill="#ffb600"></path><path id="Trazado_15" data-name="Trazado 15" d="M218,42.97v2.247a14.726,14.726,0,0,0-10.864-4.806,17.746,17.746,0,0,0-17.763,17.763,17.746,17.746,0,0,0,17.763,17.762,14.071,14.071,0,0,0,6.1-1.361V67.486a11.134,11.134,0,0,1-13.985-17.179,11.173,11.173,0,0,1,15.749,0,10.464,10.464,0,0,1,3,5.494V75.123h6.493V42.97Z" transform="translate(-82.3 -17.563)" fill="#3b4650"></path><path id="Trazado_16" data-name="Trazado 16" d="M315.53,63.535V55.886h5.039v1.332h-3.546v1.795h3.019v1.332h-3.019V62.2h3.546v1.332Z" transform="translate(-137.129 -24.288)" fill="#d0cbcb"></path><path id="Trazado_17" data-name="Trazado 17" d="M332.4,63.55a3.591,3.591,0,0,1-2.793-1.01l.967-.967a2.5,2.5,0,0,0,1.848.646c.882,0,1.354-.334,1.354-.946a.853.853,0,0,0-.236-.645,1.146,1.146,0,0,0-.677-.269l-.924-.129a2.591,2.591,0,0,1-1.483-.634,2.022,2.022,0,0,1-.547-1.5,2.356,2.356,0,0,1,2.664-2.322,3.28,3.28,0,0,1,2.471.892l-.945.934a2.131,2.131,0,0,0-1.569-.526c-.795,0-1.181.44-1.181.967a.74.74,0,0,0,.224.548,1.326,1.326,0,0,0,.709.3l.9.129a2.538,2.538,0,0,1,1.462.591,2.146,2.146,0,0,1,.591,1.622c0,1.483-1.235,2.321-2.837,2.321" transform="translate(-143.247 -24.238)" fill="#d0cbcb"></path><path id="Trazado_18" data-name="Trazado 18" d="M348.212,63.55a2.815,2.815,0,0,1-2.063-.838c-.773-.773-.752-1.73-.752-3.051s-.022-2.277.752-3.051a2.818,2.818,0,0,1,2.063-.838,2.7,2.7,0,0,1,2.815,2.417h-1.515a1.265,1.265,0,0,0-1.289-1.084,1.236,1.236,0,0,0-.957.4c-.29.323-.376.688-.376,2.16s.086,1.838.376,2.159a1.237,1.237,0,0,0,.957.4,1.265,1.265,0,0,0,1.289-1.086h1.515a2.7,2.7,0,0,1-2.815,2.418" transform="translate(-150.109 -24.238)" fill="#d0cbcb"></path><path id="Trazado_19" data-name="Trazado 19" d="M361.433,63.535V55.886h1.493V62.2h3.47v1.332Z" transform="translate(-157.078 -24.288)" fill="#d0cbcb"></path><path id="Trazado_20" data-name="Trazado 20" d="M376.158,63.535V55.886H381.2v1.332h-3.546v1.795h3.019v1.332h-3.019V62.2H381.2v1.332Z" transform="translate(-163.477 -24.288)" fill="#d0cbcb"></path><path id="Trazado_21" data-name="Trazado 21" d="M395.513,63.535l-1.493-3.051h-1.075v3.051h-1.493V55.886h3a2.312,2.312,0,0,1,2.482,2.342,2.062,2.062,0,0,1-1.4,2.009l1.707,3.3Zm-1.16-6.317h-1.407v2.021h1.407a1.013,1.013,0,1,0,0-2.021" transform="translate(-170.124 -24.288)" fill="#d0cbcb"></path><path id="Trazado_22" data-name="Trazado 22" d="M412.11,62.712a2.971,2.971,0,0,1-4.137,0c-.773-.773-.752-1.73-.752-3.051s-.021-2.277.752-3.051a2.971,2.971,0,0,1,4.137,0c.773.773.763,1.73.763,3.051s.011,2.279-.763,3.051M411,57.512a1.241,1.241,0,0,0-.956-.408,1.267,1.267,0,0,0-.967.408c-.29.323-.365.676-.365,2.149s.075,1.827.365,2.149a1.268,1.268,0,0,0,.967.409A1.242,1.242,0,0,0,411,61.81c.291-.322.376-.677.376-2.149s-.085-1.826-.376-2.149" transform="translate(-176.977 -24.238)" fill="#d0cbcb"></path><path id="Trazado_23" data-name="Trazado 23" d="M425.29,63.55a3.59,3.59,0,0,1-2.793-1.01l.967-.967a2.5,2.5,0,0,0,1.848.646c.881,0,1.354-.334,1.354-.946a.853.853,0,0,0-.236-.645,1.143,1.143,0,0,0-.676-.269l-.924-.129a2.59,2.59,0,0,1-1.483-.634,2.02,2.02,0,0,1-.548-1.5,2.357,2.357,0,0,1,2.664-2.322,3.279,3.279,0,0,1,2.471.892l-.945.934a2.131,2.131,0,0,0-1.569-.526c-.795,0-1.181.44-1.181.967a.739.739,0,0,0,.225.548,1.328,1.328,0,0,0,.709.3l.9.129a2.537,2.537,0,0,1,1.461.591,2.144,2.144,0,0,1,.591,1.622c0,1.483-1.235,2.321-2.837,2.321" transform="translate(-183.616 -24.238)" fill="#d0cbcb"></path><rect id="Rect&#xE1;ngulo_39" data-name="Rect&#xE1;ngulo 39" width="1.493" height="7.649" transform="translate(248.066 31.598)" fill="#d0cbcb"></rect><path id="Trazado_24" data-name="Trazado 24" d="M449.914,63.55a3.59,3.59,0,0,1-2.793-1.01l.967-.967a2.5,2.5,0,0,0,1.848.646c.881,0,1.354-.334,1.354-.946a.853.853,0,0,0-.236-.645,1.143,1.143,0,0,0-.676-.269l-.924-.129a2.591,2.591,0,0,1-1.482-.634,2.02,2.02,0,0,1-.548-1.5,2.357,2.357,0,0,1,2.664-2.322,3.279,3.279,0,0,1,2.471.892l-.945.934a2.131,2.131,0,0,0-1.569-.526c-.795,0-1.181.44-1.181.967a.739.739,0,0,0,.225.548,1.326,1.326,0,0,0,.709.3l.9.129a2.54,2.54,0,0,1,1.462.591,2.145,2.145,0,0,1,.591,1.622c0,1.483-1.235,2.321-2.837,2.321" transform="translate(-194.318 -24.238)" fill="#d0cbcb"></path><path id="Trazado_25" data-name="Trazado 25" d="M315.53,86.335V78.687h1.493V85h3.47v1.332Z" transform="translate(-137.129 -34.197)" fill="#d0cbcb"></path><path id="Trazado_26" data-name="Trazado 26" d="M333.962,86.335l-.452-1.354h-2.718l-.461,1.354h-1.558l2.783-7.649h1.171l2.793,7.649Zm-1.783-5.393-.967,2.782h1.9Z" transform="translate(-142.884 -34.197)" fill="#d0cbcb"></path><path id="Trazado_27" data-name="Trazado 27" d="M347.521,80.018v6.317h-1.494V80.018h-2V78.687h5.49v1.332Z" transform="translate(-149.514 -34.197)" fill="#d0cbcb"></path><path id="Trazado_28" data-name="Trazado 28" d="M359.685,86.335V78.687h5.038v1.332h-3.545v1.795H364.2v1.332h-3.019V85h3.545v1.332Z" transform="translate(-156.318 -34.197)" fill="#d0cbcb"></path><path id="Trazado_29" data-name="Trazado 29" d="M379.04,86.336l-1.493-3.051h-1.075v3.051h-1.493V78.687h3a2.312,2.312,0,0,1,2.482,2.342,2.062,2.062,0,0,1-1.4,2.009l1.708,3.3Zm-1.16-6.317h-1.407v2.019h1.407a1.012,1.012,0,1,0,0-2.019" transform="translate(-162.965 -34.197)" fill="#d0cbcb"></path><path id="Trazado_30" data-name="Trazado 30" d="M394.913,86.335l-.452-1.354h-2.718l-.461,1.354h-1.558l2.782-7.649h1.171l2.793,7.649Zm-1.783-5.393-.967,2.782h1.9Z" transform="translate(-169.373 -34.197)" fill="#d0cbcb"></path><path id="Trazado_31" data-name="Trazado 31" d="M407.128,86.335V78.687h1.493V85h3.47v1.332Z" transform="translate(-176.936 -34.197)" fill="#d0cbcb"></path><path id="Trazado_32" data-name="Trazado 32" d="M319.238,109.133l-.452-1.354h-2.718l-.461,1.354h-1.558l2.782-7.649H318l2.793,7.649Zm-1.783-5.393-.967,2.782h1.9Z" transform="translate(-136.485 -44.105)" fill="#d0cbcb"></path><path id="Trazado_33" data-name="Trazado 33" d="M336.888,109.133v-4.458l-1.461,2.9h-1.01l-1.472-2.9v4.458h-1.493v-7.649h1.472l2,4.135,1.987-4.135h1.472v7.649Z" transform="translate(-144.048 -44.105)" fill="#d0cbcb"></path><rect id="Rect&#xE1;ngulo_40" data-name="Rect&#xE1;ngulo 40" width="1.493" height="7.649" transform="translate(198.264 57.379)" fill="#d0cbcb"></rect><path id="Trazado_34" data-name="Trazado 34" d="M364.687,108.311a2.971,2.971,0,0,1-4.137,0c-.773-.774-.752-1.73-.752-3.051s-.022-2.277.752-3.051a2.973,2.973,0,0,1,4.137,0c.773.773.763,1.73.763,3.051s.011,2.277-.763,3.051m-1.107-5.2a1.24,1.24,0,0,0-.956-.408,1.265,1.265,0,0,0-.967.408c-.291.323-.366.676-.366,2.149s.075,1.827.366,2.15a1.267,1.267,0,0,0,.967.408,1.242,1.242,0,0,0,.956-.408c.291-.323.376-.678.376-2.15s-.085-1.826-.376-2.149" transform="translate(-156.368 -44.056)" fill="#d0cbcb"></path><path id="Trazado_35" data-name="Trazado 35" d="M378.4,102.816v6.317H376.9v-6.317h-2v-1.332h5.49v1.332Z" transform="translate(-162.932 -44.105)" fill="#d0cbcb"></path><path id="Trazado_36" data-name="Trazado 36" d="M394.621,109.134l-1.493-3.051h-1.075v3.051H390.56v-7.649h3a2.312,2.312,0,0,1,2.482,2.342,2.062,2.062,0,0,1-1.4,2.009l1.708,3.3Zm-1.16-6.317h-1.407v2.019h1.407a1.012,1.012,0,1,0,0-2.019" transform="translate(-169.736 -44.105)" fill="#d0cbcb"></path><path id="Trazado_37" data-name="Trazado 37" d="M411.217,106.386a2.971,2.971,0,0,1-4.137,0c-.773-.774-.752-1.73-.752-3.051s-.022-2.277.752-3.051a2.973,2.973,0,0,1,4.137,0c.773.773.763,1.73.763,3.051s.011,2.277-.763,3.051m-1.107-5.2a1.241,1.241,0,0,0-.956-.408,1.268,1.268,0,0,0-.967.408c-.29.323-.365.676-.365,2.149s.075,1.827.365,2.15a1.27,1.27,0,0,0,.967.408,1.243,1.243,0,0,0,.956-.408c.291-.323.376-.678.376-2.15s-.085-1.826-.376-2.149m-.612-2.418h-.935l.688-1.826h1.472Z" transform="translate(-176.589 -42.131)" fill="#d0cbcb"></path><path id="Trazado_38" data-name="Trazado 38" d="M424.314,102.816V104.7h3.019v1.332h-3.019v3.105h-1.493v-7.649h5.039v1.332Z" transform="translate(-183.757 -44.105)" fill="#d0cbcb"></path><rect id="Rect&#xE1;ngulo_41" data-name="Rect&#xE1;ngulo 41" width="1.493" height="7.649" transform="translate(247.551 57.379)" fill="#d0cbcb"></rect><path id="Trazado_39" data-name="Trazado 39" d="M449.784,109.148a2.815,2.815,0,0,1-2.063-.838c-.773-.774-.752-1.73-.752-3.051s-.022-2.277.752-3.051a2.818,2.818,0,0,1,2.063-.838,2.7,2.7,0,0,1,2.815,2.417h-1.515A1.265,1.265,0,0,0,449.8,102.7a1.236,1.236,0,0,0-.957.4c-.29.323-.376.688-.376,2.16s.086,1.838.376,2.159a1.237,1.237,0,0,0,.957.4,1.265,1.265,0,0,0,1.289-1.086H452.6a2.7,2.7,0,0,1-2.815,2.418" transform="translate(-194.252 -44.055)" fill="#d0cbcb"></path><path id="Trazado_40" data-name="Trazado 40" d="M466.523,109.133l-.452-1.354h-2.718l-.461,1.354h-1.558l2.782-7.649h1.171l2.793,7.649Zm-1.783-5.393-.967,2.782h1.9Z" transform="translate(-200.494 -44.105)" fill="#d0cbcb"></path><rect id="Rect&#xE1;ngulo_42" data-name="Rect&#xE1;ngulo 42" width="1.271" height="76.921" transform="translate(159.563 9.577)" fill="#d0cbcb"></rect></g></svg>